<svg width="140" height="37" viewBox="0 0 140 37" fill="none" xmlns="http://www.w3.org/2000/svg">
<path d="M19.5661 35.7025H15.2398C14.9168 35.7025 14.7794 35.5627 14.7794 35.2422V23.866C14.7794 23.543 14.6396 23.4056 14.3167 23.4056H5.75559C5.43263 23.4056 5.29524 23.543 5.29524 23.866V35.2422C5.29524 35.5627 5.15545 35.7025 4.83489 35.7025H0.460352C0.137383 35.7025 0 35.5627 0 35.2422V7.15835C0 6.83538 0.137383 6.698 0.460352 6.698H4.83489C5.15545 6.698 5.29524 6.83538 5.29524 7.15835V18.1152C5.29524 18.4382 5.43263 18.5755 5.75559 18.5755H14.3239C14.6469 18.5755 14.7867 18.4382 14.7867 18.1152V7.15835C14.7867 6.83538 14.924 6.698 15.247 6.698H19.5734C19.8963 6.698 20.0337 6.83538 20.0337 7.15835V35.2422C20.0265 35.5627 19.8891 35.7025 19.5661 35.7025Z" fill="#000100"/>
<path d="M45.5747 35.7024H40.9254C40.8222 35.7163 40.7174 35.6908 40.6321 35.6309C40.5468 35.5711 40.4872 35.4813 40.4651 35.3795L39.084 30.5446C39.0382 30.3156 38.843 30.2698 38.6237 30.2698H32.0414C31.8004 30.2698 31.6268 30.3156 31.581 30.5446L30.2 35.3795C30.1779 35.4813 30.1182 35.5711 30.0329 35.6309C29.9476 35.6908 29.8429 35.7163 29.7396 35.7024H25.1361C24.8131 35.7024 24.6276 35.5626 24.6276 35.3337C24.6884 35.052 24.7689 34.775 24.8686 34.5046L33.2465 7.02812C33.2681 6.926 33.3276 6.83587 33.413 6.77593C33.4985 6.71599 33.6035 6.69069 33.7068 6.70515H37.0233C37.1266 6.69127 37.2313 6.7168 37.3166 6.77665C37.4019 6.8365 37.4616 6.92628 37.4836 7.02812L45.8616 34.5046C45.9728 34.771 46.0537 35.0491 46.1026 35.3337C46.0809 35.5626 45.8977 35.7024 45.5747 35.7024ZM37.2884 24.1455L35.9532 18.7586C35.8616 18.4381 35.5386 16.5894 35.447 16.2279H35.3096C35.218 16.5967 34.8493 18.3971 34.7577 18.7586L33.3766 24.1069C33.2683 24.4058 33.1876 24.714 33.1356 25.0276C33.1356 25.2686 33.3212 25.4422 33.6418 25.4422H37.004C37.3246 25.4422 37.5102 25.259 37.5102 25.0276C37.4684 24.7264 37.394 24.4306 37.2884 24.1455Z" fill="#000100"/>
<path d="M71.54 35.7025H66.1435C66.0673 35.6945 65.9941 35.6685 65.93 35.6266C65.8659 35.5847 65.8126 35.5281 65.7748 35.4615L58.5441 23.9069C58.4067 23.7214 58.2669 23.584 58.1296 23.584C58.0534 23.5919 57.9802 23.618 57.916 23.6599C57.8519 23.7018 57.7987 23.7584 57.7608 23.825L56.3002 25.7941C56.057 26.1103 55.9271 26.4991 55.9314 26.898V35.2422C55.9314 35.5627 55.7941 35.7025 55.4711 35.7025H51.099C50.776 35.7025 50.6386 35.5627 50.6386 35.2422V7.15835C50.6386 6.83538 50.776 6.698 51.099 6.698H55.4711C55.7941 6.698 55.9314 6.83538 55.9314 7.15835V17.3777C55.9314 17.7006 56.117 17.932 56.346 17.932C56.4319 17.9212 56.5141 17.8905 56.586 17.8424C56.658 17.7943 56.7178 17.7301 56.7606 17.6548L64.9553 6.88118C65.0512 6.7764 65.1826 6.71109 65.324 6.698H70.6265C70.9471 6.698 71.1327 6.83538 71.1327 7.06676C71.1211 7.20026 71.0727 7.32793 70.9929 7.43552L62.3378 18.161C62.1713 18.3219 62.0592 18.5309 62.0172 18.7587C62.0172 18.8985 62.1088 19.0359 62.292 19.3589L71.7304 34.642C71.9136 34.965 72.0534 35.1482 72.0534 35.3338C72.0461 35.5627 71.8606 35.7025 71.54 35.7025Z" fill="#000100"/>
<path d="M95.8904 35.7025H91.1495C91.0551 35.6995 90.9641 35.6666 90.8896 35.6086C90.8151 35.5506 90.7609 35.4704 90.7349 35.3796L86.6833 23.6852C86.6655 23.6025 86.6183 23.5291 86.5505 23.4786C86.4827 23.4281 86.3989 23.4039 86.3146 23.4104H82.2172C81.8967 23.4104 81.7593 23.5478 81.7593 23.8708V35.2422C81.7593 35.5627 81.6195 35.7025 81.2965 35.7025H76.9244C76.6014 35.7025 76.4641 35.5627 76.4641 35.2422V7.15835C76.4641 6.83538 76.6014 6.698 76.9244 6.698H87.2883C92.5353 6.698 95.8494 10.0578 95.8494 15.2615V15.7218C95.8494 18.0694 93.8706 20.7833 92.1208 21.9884C92.0579 22.0256 92.0072 22.0803 91.9747 22.1457C91.9421 22.2111 91.9293 22.2846 91.9376 22.3572C91.9852 22.6125 92.0662 22.8605 92.1786 23.0947L96.1386 34.6035C96.2351 34.8437 96.3156 35.0901 96.3796 35.341C96.3531 35.5627 96.2133 35.7025 95.8904 35.7025ZM90.5879 14.8469C90.576 13.9717 90.2231 13.1356 89.6041 12.5167C88.9852 11.8977 88.1491 11.5447 87.2738 11.5329H82.2124C81.8918 11.5329 81.7545 11.6703 81.7545 11.9932V18.1152C81.7545 18.4382 81.8918 18.5755 82.2124 18.5755H87.2738C88.1491 18.5637 88.9852 18.2107 89.6041 17.5918C90.2231 16.9728 90.576 16.1367 90.5879 15.2615V14.8469Z" fill="#000100"/>
<path d="M112.74 36.1582H110.491C105.242 36.1582 101.928 32.796 101.928 28.0093V14.3867C101.928 9.59764 105.242 6.23779 110.491 6.23779H112.747C117.949 6.23779 121.309 9.59764 121.309 14.3867V28.0141C121.301 32.8008 117.941 36.1582 112.74 36.1582ZM116.008 14.3819C116.016 13.9486 115.936 13.5183 115.775 13.116C115.614 12.7137 115.374 12.3476 115.07 12.0391C114.765 11.7305 114.403 11.4857 114.003 11.319C113.603 11.1522 113.174 11.0668 112.74 11.0679H110.491C109.616 11.0797 108.78 11.4327 108.161 12.0516C107.542 12.6706 107.189 13.5067 107.177 14.3819V28.0093C107.186 28.887 107.537 29.7268 108.156 30.3488C108.776 30.9709 109.614 31.3258 110.491 31.3378H112.747C113.181 31.3388 113.61 31.2534 114.01 31.0867C114.41 30.9199 114.773 30.6751 115.077 30.3666C115.381 30.058 115.621 29.6919 115.782 29.2896C115.943 28.8874 116.023 28.457 116.016 28.0237L116.008 14.3819Z" fill="#000100"/>
<path d="M138.127 10.9062C137.534 11.4997 136.83 11.9706 136.054 12.2919C135.279 12.6131 134.448 12.7785 133.609 12.7785C132.77 12.7785 131.939 12.6131 131.164 12.2919C130.389 11.9706 129.684 11.4997 129.091 10.9062L133.61 6.3894L138.127 10.9062Z" fill="#E4032D"/>
<path d="M129.091 1.87034C130.29 0.672726 131.915 0 133.609 0C135.303 0 136.928 0.672726 138.127 1.87034L133.61 6.38949L129.091 1.87034Z" fill="#E4032D"/>
<path d="M137.042 6.38936C137.038 4.89232 137.561 3.44155 138.52 2.29199C139.476 3.43947 140 4.88595 140 6.37972C140 7.87349 139.476 9.31997 138.52 10.4674C137.561 9.31789 137.038 7.86711 137.042 6.37008V6.38936Z" fill="#E4032D"/>
<path d="M128.698 2.30176C129.655 3.44923 130.178 4.89571 130.178 6.38948C130.178 7.88325 129.655 9.32974 128.698 10.4772C127.744 9.32892 127.221 7.88274 127.221 6.38948C127.221 4.89622 127.744 3.45004 128.698 2.30176Z" fill="#E4032D"/>
</svg>
